<svg xmlns="http://www.w3.org/2000/svg" viewBox="0 0 400 120">
  <g transform="scale(1.7) translate(30,10)">
    <path d="M60.6,97.2c-13.2,0-25.7-2.6-36.7-7.7c-2.1-1-3.1-3.5-2.1-5.6c1-2.1,3.5-3.1,5.6-2.1c10.1,4.7,21.7,7.1,33.2,7.1
      c13.7,0,26.7-2.9,38.6-8.6c2.1-1,4.6-0.1,5.6,2c1,2.1,0.1,4.6-2,5.6C89.1,94.2,75.2,97.2,60.6,97.2z" fill="#FF9900"/>
    <path d="M99.7,85.2c-1.2,0-2.4-0.6-3.2-1.7c-1.3-1.8-0.9-4.3,0.9-5.6c7.7-5.6,14.6-12.5,20.2-20.5c1.3-1.8,3.8-2.2,5.6-0.9
      c1.8,1.3,2.2,3.8,0.9,5.6c-6,8.5-13.3,15.9-21.5,22C101.3,85,100.5,85.2,99.7,85.2z" fill="#FF9900"/>
    <path d="M21.5,85.2c-0.8,0-1.6-0.2-2.3-0.7c-8.2-6.1-15.5-13.5-21.5-22c-1.3-1.8-0.9-4.3,0.9-5.6c1.8-1.3,4.3-0.9,5.6,0.9
      c5.6,8,12.5,14.9,20.2,20.5c1.8,1.3,2.2,3.8,0.9,5.6C23.9,84.6,22.7,85.2,21.5,85.2z" fill="#FF9900"/>
    <text x="70" y="70" font-family="Arial, Helvetica, sans-serif" font-size="48" fill="#232F3E">AWS</text>
  </g>
</svg>
