
<svg xmlns="http://www.w3.org/2000/svg" viewBox="0 0 333334 199332">
  <path fill="#FF9900" d="M93937 66223c0 4105 441 7428 1324 9862 883 2434 2048 4542 3593 6325 551 662 771 1324 771 1985 0 883-551 1765-1654 2655l-5467 3643c-772 551-1545 772-2325 772-883 0-1766-331-2656-993-1213-1324-2325-2766-3317-4322-993-1544-1985-3307-3087-5512-7752 9180-17504 13782-29182 13782-8373 0-15029-2434-19963-7321-4933-4887-7421-11430-7421-19742 0-8744 3088-15803 9302-21204 6215-5402 14478-8151 24893-8151 3422 0 6985 221 10739 662 3754 442 7642 1214 11726 2105v-7422c0-7752-1605-13061-4803-15914-3307-2877-8924-4212-16896-4212-3644 0-7421 441-11154 1323-3733 883-7421 1985-10960 3307-1654 772-2877 1213-3644 1433-773 221-1324 331-1765 331-1545 0-2325-1103-2325-3308v-5290c0-1765 221-3087 771-3869 551-773 1545-1544 3088-2325 3865-1985 8483-3639 13893-5071 5390-1323 11154-2104 17173-2104 13052 0 22676 2987 28841 8924 6105 5952 9192 14877 9192 26752v35320zm-40546 16806c3307 0 6767-.662 10408-1986 3643-1323 6987-3528 10078-6435 1765-1985 3087-4322 3859-6987 771-2655 1213-5842 1213-9421v-4542c-3087-.772-6435-1433-10080-1985-3643-.551-7195-.772-10738-.772-7642 0-13232 1544-16896 4652-3643 3087-5398 7422-5398 13061 0 5292 1324 9302 4103 11957 2655 2764 6546 4090 13452 4090zm102286-18459c-2553 0-4527-.662-6028-1876-1503-1212-2771-3659-4000-7492l-22952-75829c-.772-1765-1102-3358-1102-4542 0-1886.661-2878 983 5500 983h9199c2547 0 4327.662 6324 2078 1765 1215 3704 7422l16392 64632 15251-64632c1108-3704 2329-5737 3551-6838 1214-1103 3201-1766 5742-1766h7507c2534 0 4527.663 6324 2077 1766 1323 3704 7422l15473 65515 16896-65515c1105-3704 2325-5737 3530-6838 1213-1103 3307-1766 5735-1766h8737c1544 0 2877.331 3307.993 983 1544 0 993-.329 1986-.771 2987-.442 1105-.772 2108-1324 3198l-23281 75606c-1217 3866-2437 6546-3978 7752-1434 1213-3531 1876-6102 1876h-8078c-2547 0-4533-.663-5862-1876-1311-1323-2548-3866-3635-7752l-15140-62966-14920 62858c-1105 3866-2325 6435-3643 7751-1324 1212-3307 1876-5862 1876h-8078zm129159 3530c-6029 0-12051-.766-18055-2319-6028-1538-10733-3309-13893-5285-1547-.879-2655-1876-3211-2866-.552-.993-.771-2431-.771-4318V77017c0-3307.883-4433 1324-1323 3087-662.221-.11.438-.221.771-.221.331-.11.551 0 661 0 1654-.11 3532 1105 5960 3090 5401 3307 11264 5953 17614 7863 6324 1886 12382 2877 18275 2877 7752 0 13783-1324 17945-4212 4212-2766 6435-7422 6435-13232 0-3865-.986-7200-2877-9862-1986-2659-5291-4983-10081-7200-4768-2215-11375-4651-19633-7421-7092-2433-12824-5067-17393-7752-4542-2878-7974-6215-10180-10296-2217-4104-3352-9191-3352-15406 0-5957 1324-11264 3978-15687 2651-4430 6215-8262 10850-11374 4542-3087 9862-5398 15803-7091 5957-1765 12162-2547 18729-2547 3307 0 6705.221 9971.442 2764-1213 4105-1766 7872-2878 11264-3196 3307-.332 5737.663 5292 1876 4212 1213 1986 1766 3866 1766 5624v4541c0 1768-.993 3091-2987 3849-1986.772-3983 1444-1440-2988-889-2210-442-4758-.876-7640-1317-2877-.442-5847-.662-8814-.662-7092 0-12603 1104-16345 3307-3747 2217-5624 5957-5624 11375 0 3866.993 7091 3090 9860 4980 2877 9742 5401 22565 7648 32598 7091 2433 12713 5074 16786 7642 4090 2659 7091 5737 9082 9304 1995 3649 2877 8152 2877 13560 0 6104-1214 11594-3644 16345-2433 4776-5735 8814-9856 12051-4212 3311-9191 5737-14809 7532-5624 1768-11745 2657-18275 2657z" transform="scale(.33333)"/>
</svg>
