
<svg xmlns="http://www.w3.org/2000/svg" viewBox="0 0 48 48">
  <path fill="#035bda" d="M46 40L29.317 4.033A2.65 2.65 0 0 0 26.935 2h-0.012c-1.108 0-2.051.693-2.424 1.667l-8.814 22.448L27.111 40H46z"/>
  <path fill="#0078d4" d="M32.596 38.186l-13.856-15.42-6.962 14.346c-.341.709-.371 1.519-.088 2.249.291.747.877 1.324 1.622 1.602.27.099.54.145.809.145h18.444c-.003-1.208-.757-2.317-1.959-2.922z"/>
  <path fill="#0078d4" d="M39.265 38.22a2.938 2.938 0 0 0-.046-.034H28.782L18.322 25.921l-8.05 16.619A2.637 2.637 0 0 0 12.664 46h31.649c.033 0 .064 0 .096-.002-2.046-.449-4.199-3.692-5.144-7.778z"/>
</svg>
