
<svg xmlns="http://www.w3.org/2000/svg" viewBox="0 0 512 512">
  <path fill="#68217A" d="M480.5,128.1v255.8c0,23.5-19,42.5-42.5,42.5c-7.5,0-14.5-2-20.7-5.4L216,256L417.3,90.9 c6.2-3.4,13.2-5.4,20.7-5.4C461.5,85.6,480.5,104.7,480.5,128.1z"/>
  <path fill="#9C75D5" d="M393.7,422.9c-6.2,3.4-13.2,5.4-20.7,5.4c-23.5,0-42.5-19-42.5-42.5V128.1c0-23.5,19-42.5,42.5-42.5 c7.5,0,14.5,2,20.7,5.4L190.2,256L393.7,422.9z"/>
  <path fill="#6B4FBB" d="M60.2,374.5L150.1,256L60.2,137.5c-6.7,3.6-12.7,8.2-17.7,13.6c-26.1,28-26.1,93.3,0,121.3 C47.6,277.4,53.6,371,60.2,374.5z"/>
  <path fill="#8062C3" d="M107.7,428.4c-7.9,0-15.6-1-23.2-2.8c-7.4-1.8-14.6-4.5-21.5-7.9l-2.7-1.2l90-118.5l-90-118.6l2.7-1.1 c6.8-3.4,14-6.1,21.5-7.9c7.6-1.9,15.3-2.8,23.2-2.8c24,0,47.9,8,68.1,23.4c30.9,23.5,60.1,58.3,67,97.1l0.1,0.5l-0.1,0.5 c-6.9,38.8-36.2,73.6-67,97.1C155.6,420.4,131.7,428.4,107.7,428.4z"/>
  <path fill="#FFFFFF" d="M344,280v-16h16v-16h-16v-16h-16v16h-16v16h16v16H344z M408,280v-16h16v-16h-16v-16h-16v16h-16v16h16v16H408z"/>
</svg>
