
<svg xmlns="http://www.w3.org/2000/svg" viewBox="0 0 512 512">
  <path fill="#264DE4" d="M71.357 460.819L30.272 0h451.456l-41.129 460.746L255.724 512z"/>
  <path fill="#2965F1" d="M405.388 431.408l35.148-393.73H256v435.146z"/>
  <path fill="#EBEBEB" d="M124.46 208.59l5.065 56.517H256V208.59zM119.419 150.715H256V94.197H114.281zM256 355.372l-.248.066-63.105-17.033-4.035-45.199h-56.89l7.934 88.894 115.934 32.194.31-.085z"/>
  <path fill="#FFF" d="M255.805 208.59v56.517h69.615l-6.56 73.299-63.055 17.033v58.879l115.92-32.104 1.34-15.404 13.236-149.224 1.366-15.176 10.296-114.393H255.805v56.518h125.114l-5.07 56.517z"/>
</svg>
