
<svg xmlns="http://www.w3.org/2000/svg" viewBox="0 0 456 456">
  <path fill="#512BD4" d="M81.2 224.97c-.44 92.75 75.8 177.12 171.84 172.3 45.76-1.85 88.4-22.43 116.87-56.56 27.8-32.5 43.08-75.53 41.5-118.35-1.6-69.8-43.24-131.85-103.08-161.15-67.92-33.92-151.26-19.8-204.27 36.73-29.92 31.72-46.34 72.04-46.34 114.5M370.2 180.3c-1.72 0-2.56.43-2.56 2.58v37.74c0 15.9-3.43 22.78-12.86 30.94-9.43 8.18-21.44 11.17-36.13 11.17-14.7 0-26.7-2.92-35.7-11.17-9.43-8.16-12.86-15.04-12.86-30.94v-37.74c0-2.15-.85-2.58-2.58-2.58h-20.44c-2.14 0-2.57.43-2.57 2.58v39.87c0 22.78 7.28 38.68 20.15 49.84 14.28 12.43 34 18.6 53.58 18.17 19.58.43 39.3-5.74 54-18.17 13.3-11.16 20.15-27.06 20.15-49.84v-39.87c0-2.15-.85-2.58-2.57-2.58h-19.58zm-200.54 0v89.3H152v-66.94c0-1.72.43-2.58 2.58-2.58h48.68c2.15 0 2.57-.44 2.57-2.6v-14.6c0-2.15-.42-2.58-2.6-2.58h-33.57zm95.4 0v109.46h17.46V180.3h-17.46zm-145.15 0L94.07 289.75h18.3l8.16-33.1h32.72l8.58 33.1h20.58L156.3 180.3h-36zm27.9 20.2l10.3 43.1H134.9l13.3-43.1z"/>
</svg>
