
<svg xmlns="http://www.w3.org/2000/svg" viewBox="0 0 32 32">
  <path fill="#ffffff" d="M9.563 8.424v-5.04h12.874v5.04l.582.541c.387.36.774.73 1.147 1.122 3.673 3.86 2.184 10.12-2.925 12.495-.089.042-.132.085-.11.2.11.574.22 1.15.329 1.724.132.702.266 1.404.397 2.108.022.132-.021.176-.153.175H10.306c-.131 0-.175-.043-.153-.176.243-1.282.485-2.563.73-3.845.02-.11-.023-.155-.112-.198-2.482-1.16-3.993-3.073-4.346-5.838-.271-2.116.285-4.022 1.396-5.778.359-.569.75-1.115 1.135-1.66l.608-.848zm8.276 9.746a5.847 5.847 0 0 1-.456 2.281c-.366.792-.93 1.43-1.726 1.808-.132.162-.002.268.083.376.982 1.243 1.95 2.499 2.934 3.744.072.09.06.13-.042.173-.146.06-.27.163-.444.157-1.092-.025-2.184-.025-3.276 0-.161.005-.265-.055-.368-.18-.953-1.157-1.915-2.307-2.863-3.468-.07-.086-.138-.07-.212-.034-.596.288-1.198.292-1.797.01-1.047-.49-1.46-1.34-1.49-2.434-.03-1.166.656-2.235 1.726-2.554.213-.112.33-.255.329-.505-.005-1.315-.004-2.631-.001-3.947 0-.128-.033-.17-.168-.169-.724.004-1.447.004-2.171 0-.135 0-.166.044-.166.169.004 1.01.004 2.019 0 3.028 0 .121.024.171.157.205.781.198 1.399.625 1.81 1.339.241.418.343.874.348 1.372.954-1.228 1.907-2.45 2.86-3.67.096-.124.173-.21.347-.175.109.022.227.002.339.002h2.446c.788 0 .788 0 1.04.75.067.197.014.311-.109.472-.654.852-1.284 1.725-1.93 2.585-.168.223-.347.438-.522.657zm-2.453 0c-.4.515-.01 1.02.011 1.543-1.608-2.15-3.216-4.3-4.824-6.45.013 1.042.013 2.082.012 3.122 0 .157.04.196.197.195.673-.006 1.345-.004 2.018-.004.108 0 .168.02.166.149-.008.573-.006 1.147-.001 1.72 0 .126-.046.16-.163.159-.584-.005-1.168-.006-1.751 0-.148.001-.178-.05-.176-.186.007-.705.01-1.41-.003-2.114-.002-.147.072-.23.178-.319.542-.456 1.08-.918 1.614-1.384.133-.117.275-.224.41-.338.19-.161.19-.163.393-.029.957.637 1.913 1.274 2.87 1.91.224.15.224.151.049.336-.524.662-1.041 1.33-1.573 1.986-.132.163-.255.163-.387 0-.358-.45-.715-.902-1.07-1.354-.152-.192-.297-.39-.452-.592-.025-.034-.075-.07-.1-.066-.045.007-.094.056-.108.098-.034.095-.01.196-.01.295.14.09.28.177.44.266.306.386.609.776.921 1.158.142.171.142.172 0 .344-.307.372-.611.744-.913 1.12-.051.063-.07.135-.07.226zm-3.316-.018c0-.504-.004-1.008.003-1.512.002-.15-.04-.195-.19-.19-.214.008-.427.003-.64.002-.124 0-.176.036-.176.17.004 1.023-.006 2.045.01 3.069.01.67-.456 1.147-.714 1.7-.138.296-.393.496-.65.69-.103.08-.138.155-.135.285.01.585.006 1.17.002 1.755-.2.178.058.216.219.21.336-.009.672-.006 1.008 0 .154.002.205-.04.204-.201-.004-.585 0-1.17-.003-1.755-.001-.172-.014-.335.029-.503.1-.387.334-.694.628-.96.132-.12.175-.25.175-.42-.004-.513-.003-1.026 0-1.539zm8.344-.516c0-.334-.004-.668.003-1.002.003-.15-.06-.17-.19-.168-.585.006-1.17.005-1.756 0-.126-.002-.168.037-.168.168.004.673.004 1.345 0 2.019 0 .123.042.155.16.154.59-.004 1.18-.005 1.77 0 .136.001.183-.041.181-.181-.006-.33-.003-.66-.003-.99z"/>
</svg>
