
<svg xmlns="http://www.w3.org/2000/svg" viewBox="0 0 512 512">
  <path fill="#F05032" d="M441.3 167.3L287.5 13.4c-8.4-8.4-22-8.4-30.4 0L203.6 67l38.6 38.6c9-3 19.3-1 26.4 6.1 7.2 7.2 9.1 17.6 5.9 26.8l37.2 37.2c9.2-3.2 19.6-1.4 26.8 5.9 10 10 10 26.2 0 36.2-10 10-26.2 10-36.2 0-7.5-7.5-9.4-18.5-5.6-27.7l-34.7-34.7v91.2c2.4 1.2 4.7 2.8 6.8 4.8 10 10 10 26.2 0 36.2-10 10-26.2 10-36.2 0-10-10-10-26.2 0-36.2 2.5-2.5 5.3-4.3 8.4-5.5v-92c-3-1.2-5.9-3-8.4-5.5-7.5-7.5-9.4-18.7-5.5-28l-38-38L67 289.7c-8.4 8.4-8.4 22 0 30.4l154 154c8.4 8.4 22 8.4 30.4 0l154-154c8.4-8.5 8.4-22.1-.1-30.5z"/>
</svg>
