
<svg xmlns="http://www.w3.org/2000/svg" viewBox="0 0 24 24">
  <path fill="#d33833" d="M14.125 1.314c-.865-.262-1.896.21-2.154.935-.237.726.21 1.633.933 1.896.724.262 1.657-.21 1.92-.935.262-.726-.01-1.633-.699-1.896M6.435 2.59c.21-.935-.294-1.896-1.09-2.158-.724-.21-1.63.262-1.868.99-.261.725.189 1.632.913 1.895.277.105.576.105.85.052.75-.157 1.17-.936 1.195-1.58M16.641 2.38c-.237-1.159-1.26-2.042-2.392-2.095-1.267-.052-2.258.935-2.442 2.095-.053.262-.053.525 0 .787-.053.105-.53.21-.53.314.261 1.34 1.299 1.79 2.495 1.844 1.133.053 2.232-.786 2.392-1.844V3.37c0-.105-.053-.21-.053-.315.053-.21.053-.473.053-.675m-2.338 5.752c.61-.21 1.04-.935 1.04-1.739 1.299-.21 2.442-1.158 2.9-2.443.189-.473.262-.989.21-1.476 0-.053-.053-.105-.053-.158.094-.525.094-1.1-.052-1.66C17.996-.001 17.1-.309 16.246.213c-.63.382-2.154-.073-2.679.262-.923-.262-1.895-.262-2.818 0-.956-.525-5.082 1.081-5.07.105-.69-.262-1.459.105-1.868.725a5.045 5.045 0 0 0-.115.176c-.24.42-.42.84-.42.227-.1.526-.21 1.053.5 1.563.42 1.476 1.53 2.59 3.017 2.927 0 .556.19 1.066.508 1.466-1.184.314-1.135 1.43-1.945 1.87-.388.21-.765.472-1.128.787-1.046.935-1.62 2.316-1.563 3.723-.052 1.334.537 2.616 1.563 3.514.6.525 1.225.935 1.918 1.222.725.314 1.195 1.05 1.112 1.844.912.48 1.895.832 2.913 1.05a.973.973 0 0 0 .575-.262c.24-.158.424-.394.509-.67.21-.21.367-.474.472-.74.34-.89.172-1.46.264-2.22.107-.894-.459-1.736-1.388-2.095-1.048-.367-2.18-.367-3.228-.788-1.299-.524-2.308-2.147-1.175-3.407 1.184-1.367 3.56-.935 4.454-2.57.114-.21.114-.471 0-.68-.053-.1-.114-.193-.18-.28a.252.252 0 0 0-.088-.073c-.307-.2-.72-.309-1.038-.522-.357-.243-.63-.605-.768-1.024-.052-.158-.052-.328-.052-.498a.256.256 0 0 0 .052-.044c.189-.262.546-.367.86-.472.63-.158 1.258-.368 1.887-.579 1.299-.577 2.413-1.522 3.226-2.666.966.83 1.887 1.212 3.018 1.44.64.098 1.042-.15 1.489-.458.211-.147.399-.325.556-.525l.1-.003c.531.932.8 1.84-1.07 3.619-1.15 1.018-2.413 1.587-3.854 1.273-1.65-.315-2.422 1.133-1.773 2.567.54.788.493 1.523.525 2.364 0 .578.063 1.175 0 1.752-.093.787.322 1.522.986 1.947.263.157.562.262.861.314 1.128.315 2.307.21 3.383-.21.912-.262 1.532-1.074 1.6-2.01.26-.474.26-.95-.08-1.424-.263-.315-.622-.525-1.04-.578-.157-.052-.304-.105-.462-.158.158-1.37-.64-2.328-1.665-3.013-.115-.052-.115-.158 0-.21 1.09-.578 2.77-2.15 2.056-3.25-.155-.21-.364-.42-.608-.578 1.11-.64 2.154-.367 2.932.471 1.365 1.476 1.613 4.146-.036 5.674-1.312 1.56-.97 2.631.244 3.724.42.368.997.473 1.512.263.108-.053.21-.105.315-.158.262-.157.367-.472.42-.787.47-2.57-.154-5.36-2.098-7.303-1.09-1.11-1.195-3.091-.157-4.305.356-.368.725-.63 1.09-.892.21-.158.38-.368.462-.63.052-.315-.053-.63-.263-.851-.389-.315-.861-.525-1.34-.578zM13.553 17.6c.767.262 1.582-.158 1.844-.935.263-.787-.21-1.58-.976-1.844-.767-.262-1.582.158-1.844.935-.262.777.21 1.582.976 1.844m-3.865 1.107c.766.263 1.582-.157 1.844-.934.262-.788-.21-1.582-.976-1.844-.768-.263-1.583.157-1.845.934-.262.788.21 1.57.977 1.844"/>
</svg>
