
<svg xmlns="http://www.w3.org/2000/svg" viewBox="0 0 24 24">
  <path fill="#326ce5" d="M10.204 14.35l.007.01-.999 2.413a5.171 5.171 0 0 1-2.075-2.597l2.578-.437.004.007a.44.44 0 0 1 .484.604zm-.833-2.129a.44.44 0 0 0 .173-.756l.002-.011L7.585 9.7a5.143 5.143 0 0 0-.73 3.255l2.514-.725.002-.009zm1.145-1.98a.44.44 0 0 0 .699-.337l.01-.005.15-2.62a5.144 5.144 0 0 0-3.01 1.442l2.147 1.523.004-.002zm.76 2.75l.723.349.722-.347.18-.78-.5-.623h-.804l-.5.623.179.779zm1.5-3.095a.44.44 0 0 0 .7.336l.008.003 2.134-1.513a5.188 5.188 0 0 0-2.992-1.442l.148 2.615.002.001zm1.106 1.744a.44.44 0 0 0 .173.756l.002.01 2.518.73a5.183 5.183 0 0 0-.726-3.257l-1.968 1.747v.014zm.293 1.973a.44.44 0 0 0 .484-.604l.007-.01L20.5 14.51a5.169 5.169 0 0 1-2.062 2.575l-1-2.41.007-.008zM24 12c0 6.627-5.373 12-12 12S0 18.627 0 12 5.373 0 12 0s12 5.373 12 12zm-8.813 4.349c.502-.146.988-.338 1.453-.568l-1.604-1.307 1.375-.988-2.593-.628a6.063 6.063 0 0 0-.372-3.138l-2.064 1.82-1.381-.202V8.674l-1.39.2-2.06-1.826a6.063 6.063 0 0 0-.374 3.139L3.57 10.82l1.36.978-1.613 1.324a11.672 11.672 0 0 1 1.444.571l.127-2.906 1.447-.466-.76-1.205L8.05 8.51l.94-1.85 1.03 1.875 2.473.606.76-1.205-1.462-.48.135-2.935c.522.21 1.025.458 1.5.75.475-.292.978-.54 1.5-.75l.135 2.935-1.465.48.76 1.205 2.476-.606 1.03-1.875.941 1.85 2.471.606.76 1.205 1.447.466.126 2.906zm-5.985 2.521l.2-1.023 1.279-.384-1.113-.914-.2-1.023-1.028.376-.891-.922-.33 1 .826.995-1.132.9.2 1.023 1.03-.375.89.92.269-1.018-.826-.996 1.117-.914-.291 1.355z"/>
</svg>
