
<svg xmlns="http://www.w3.org/2000/svg" viewBox="0 0 24 24">
  <path fill="#ffffff" d="M12.504 0c-.155 0-.315.008-.48.021-4.226.333-3.105 4.807-3.17 6.298-.076 1.092-.3 1.953-1.05 3.02-.885 1.051-2.127 2.75-2.716 4.521-.278.832-.41 1.684-.287 2.489a.42.42 0 0 0-.161.076c-.198.11-.31.328-.296.55.16.225.201.48.456.611a.805.805 0 0 0 .415.103c.16.004.33-.035.46-.118.129-.079.23-.186.335-.305.095-.119.184-.254.296-.375.017 0 .041-.007.058-.007h.05c.059.016.175.149.19.215.047.215.187.449.572.449a.911.911 0 0 0 .451-.118c.525-.243.993-.959 1.087-1.515 0 0 .436.95.933.95.496 0 .946-.951.946-.951.14.625.56 1.416 1.068 1.609.178.068.353.101.428.101h.077c.293 0 .538-.243.686-.554.106-.226.14-.498.072-.722-.156-.504-.7-.583-1.022-.635-.228-.033-.405-.144-.405-.144 0-.13.035-.25.083-.376h.025c.067 0 .131 0 .192-.002.263-.018.55-.082.77-.364.275-.243.39-.616.389-.923 0 0-.033-.618-.136-.924-.102-.303-.246-.443-.418-.543 0 0 .416.791.364 1.822-.017.211-.059.445-.161.683a16.7 16.7 0 0 1-.628 1.557c-.34.9-.69 1.867-.92 2.786.148.013.281.031.417.055.826.152 1.405.51 1.66 1.023.45.896.061 1.785-.123 2.697-.187.924-.394 1.914-.394 2.918 0 .675.17 1.347.613 1.843.613.675 1.505.764 2.448.77.886.012 1.835-.055 2.684-.299 1.732-.494 3.044-1.59 3.354-3.001.046-.208.058-.435.053-.646-.01-.578-.026-1.246-.371-1.73-.333-.37-.951-.613-1.598-.729h-.007c-.305-.063-.578-.066-.872-.066-.678 0-1.287.2-1.885.383a6.892 6.892 0 0 1-.582.157c.284-.791.522-1.66.697-2.473.068-.309.132-.682.183-1.088.51.012.104.025.157.035.26.056.662.13 1.04.09.377-.042.8-.225 1.068-.648.146-.215.224-.453.258-.707.072-.47-.059-.938-.36-1.255l.007-.007c.088-.243.063-.507-.07-.74-.236-.369-.64-.44-.997-.513-.434-.087-.706-.29-.706-.29.07-.127.12-.274.154-.43.051-.24.1-.595-.008-.868-.126-.287-.231-.369-.358-.443-.4-.218-.738-.233-1.073-.233H17.884c-.902.009-1.779.546-2.642 1.085 0 0 .128-.578.128-1.139-.005-.813-.21-1.618-.309-2.185-.096-.569-.48-.927-.48-.927h.017c-.126-.016-.215.025-.36.094-.143.066-.328.226-.328.226-.247-.261-.497-.447-.625-.5-.017-.01-.078-.022-.097-.023-.552-.238-.881.723-.881.723-.061-.033-.123-.063-.191-.087-.23-.079-.485-.112-.724-.093-.424.033-.845.306-1.178.595-.303.262-.538.39-.87.39h-.084c-.33 0-.832-.147-1.134-.406-.302-.252-.454-.723-.574-1.096a2.836 2.836 0 0 0-.31-.632c-.215-.341-.488-.251-.488-.251s.082-.052.145-.119c.055-.064.13-.151.21-.275.087-.124.155-.332.155-.332.403-.437.563-1.545.563-1.545h.005c.122-.571.192-1.166.215-1.834.011-.392-.008-1.401-.562-1.401C12.791.002 12.629 0 12.504 0z"/>
</svg>
