
<svg xmlns="http://www.w3.org/2000/svg" viewBox="0 0 32 32">
  <path fill="#599636" d="M15.9.087l.854 1.604c.192.296.4.558.645.802.715.715 1.394 1.464 2.004 2.266 1.447 1.9 2.423 4.01 3.12 6.292.418 1.394.645 2.824.662 4.27.07 4.323-1.412 8.035-4.4 11.12-.488.488-1.01.94-1.57 1.342-.296 0-.436-.227-.558-.436-.227-.383-.366-.82-.436-1.255-.105-.523-.174-1.046-.14-1.586v-.244C16.057 24.21 15.796.21 15.9.087z"/>
  <path fill="#6cac48" d="M15.9.034c-.035-.07-.07-.034-.105.051.017.244-.105.488-.122.732-.552 3.782-.627 7.58.35 11.29.244.977.645 1.9.977 2.825.14.383.296.732.506 1.063.383.66.296 1.255.244 1.9-.07.976-.105 1.953-.23 2.93-.035.244-.035.488-.053.732.017.035.053.07.07.105.017.05.03.106.053.157.017 0 .034-.017.052-.017.244-.244.523-.453.627-.767.313-.977.627-1.953.767-2.965.035-.244.053-.453.053-.697 0-.627-.17-1.237-.383-1.83-.244-.645-.523-1.255-.784-1.9-.853-2.197-1.04-4.518-.977-6.854.03-.976.105-1.953.27-2.93.lied 0-.035 0-.053.017a.015.015 0 00-.017-.017c-.244.383-.488.767-.662 1.168-.244.557-.435 1.15-.54 1.76-.157.906-.21 1.83-.262 2.753v.453c-.053.732-.07 1.464.035 2.197.017.105.017.227.035.33.017.436.07.872.157 1.29.035.21.05.427.066.645.017.523.017 1.046-.035 1.586-.07 1.255-.244 2.493-.627 3.694-.017.07-.035.14-.052.21l-.174.697c.314-.07.627-.14.906-.244 2.05-.767 3.694-2.004 4.953-3.782.374-.54.7-1.132.976-1.726.488-1.064.767-2.196.906-3.363.07-.54.087-1.097.053-1.638 0-.454-.053-.924-.157-1.38-.208-.872-.27-1.743-.244-2.615.07-2.895-.663-5.598-1.953-8.09C18.338 3.3 17.38 1.8 16.1.68c0-.034-.054-.087-.122-.157-.018-.018-.035-.053-.053-.07-.017-.017-.035-.017-.052-.034h-.06z"/>
</svg>
