
<svg xmlns="http://www.w3.org/2000/svg" viewBox="0 0 432.1 445.4">
  <path fill="#336791" d="M214.4 445.4c-6.6 0-13-.8-19.1-2.3-12.4-3-22.9-7.8-31-14.1 11.7 1.4 23.7 1.2 35.7-.7 11.5-1.8 22.4-5.2 32.2-10.1l.4-.2-1.2-.1c-8.4-1-15.9-2.5-22.3-4.3-6.5-1.9-11.9-4.2-16.3-7-4.4-2.8-7.6-6.2-9.7-10.1-2-3.9-3.1-8.7-3.1-14.4v-.4l1.8.1c3.3.2 7.5.3 12.4.3 4.6 0 9.6-.1 14.9-.3 5.3-.2 10.8-.5 16.5-1s11.2-1.1 16.5-1.8c-.1 15.3.8 29 2.8 40.7 2 11.7 4.8 21.7 8.3 29.8-8.1 2.3-16.3 3.7-24.4 4.2-4.6.3-9.1.4-13.5.4zM367.5 132.6c.3-1.1.6-2.1.9-3.2 3.8-14.9 2.9-28.3-2.7-39.9-5.7-11.7-16-21.5-30.7-29.1-13.6-7.1-31.4-11.9-52.7-14.5-21.3-2.5-46-2.4-73.4.2-13.1 1.3-26.9 3.3-41 5.9l-.3.1.1.3c.7 1.5 1.4 3 2 4.6 11.5-.9 23.1-1.5 34.9-2 11.7-.4 23.1-.5 34-.2 10.9.3 21.3 1 31.2 2 9.9 1.1 19 2.6 27.3 4.5 18.1 4.2 33.7 10.1 46.4 17.5 12.6 7.3 22.6 16.1 29.8 26.2 7.1 10 11.3 21.4 12.6 33.8.1.6.1 1.3.2 1.9 4.5-2.8 8.9-5.7 13.2-8.8l-.8-.3zM74.9 303.1c-2.1-3.2-3.9-6.6-5.4-10-1.5-3.4-2.7-7-3.6-10.7-2.1-8.4-2.8-17.4-2.1-26.7.7-9.4 2.7-19.2 6-29.4 3.3-10.2 7.9-20.7 13.7-31.5 5.8-10.8 13-21.7 21.4-32.5 7.5-9.7 15.5-18.8 24.1-27.3 8.6-8.5 17.5-16.1 26.7-22.8 8.5-6.2 17.3-11.5 26-15.8l.4-.2v-.5c-.1-1.4-.1-2.9-.2-4.3-.1-1.6-.1-3.2-.1-4.8 0-4 .3-7.9.9-11.7-17 5.6-33.3 13.8-48.3 24.3-15.1 10.6-28.7 23.4-40.4 38.3-11.7 14.9-21 31.8-27.8 50.2s-9.4 38.7-7.8 60.6c.8 10.8 3 21.4 6.4 31.8 3.5 10.4 8.2 20.3 14.1 29.6 5.9 9.3 13 17.9 21.2 25.6 8.2 7.8 17.5 14.5 27.8 20.2 5.3 2.9 10.6 5.4 15.9 7.7s10.6 4.2 15.8 5.7c10.4 3.1 20.7 5.4 30.9 6.7 10.1 1.4 20.1 2.1 29.7 2.1 9.6 0 19-.8 28.1-2.3 9.1-1.5 17.8-3.9 26.1-6.9 8.3-3.1 16-7 23.3-11.7 7.2-4.7 13.8-10.1 19.6-16.3 2.4-2.5 4.6-5.2 6.8-8 2.1-2.7 4.1-5.6 5.9-8.6-9.1 4.3-18.3 7.7-27.5 10.2-9.1 2.5-18.3 4.1-27.3 4.9-9 .8-17.9.7-26.6-.2-8.7-.9-17.1-2.6-25.2-5-8.1-2.4-15.8-5.7-23.2-9.7-7.3-4-14.2-8.8-20.5-14.3-6.4-5.5-12.2-11.6-17.4-18.4-5.1-6.8-9.6-14.2-13.2-22.1-3.7-8-6.4-16.4-8.1-25.3-.2-.9-.3-1.8-.5-2.7l-1.8.1c-6.3.3-12.6.5-19 .5-7.2 0-14.3-.2-21.3-.7v.3c.4 8.1 1.7 16.2 4.1 24.1 2.3 7.8 5.6 15.3 9.8 22.4 4.2 7.1 9.3 13.9 15.3 20.1 5.9 6.3 12.8 12 20.4 17.1 7.6 5.1 16.1 9.5 25.5 13.1 9.3 3.7 19.4 6.5 30.2 8.5 10.8 2 22.3 2.9 34.5 2.9 11.7 0 23.8-1 36.5-3.1 12.6-2 25.3-5.2 37.9-9.3 12.7-4.1 25.3-9.3 37.8-15.5 12.5-6.2 24.7-13.5 36.5-21.6l.4-.3-.3-.4c-3-4-5.7-8.2-7.9-12.7-2.2-4.4-4-9.1-5.3-13.9-1.3-4.8-2.1-9.8-2.5-15-.3-5.2-.1-10.5.7-15.9v-.1l-.1-.1c-23.1 5.6-43.6 9.2-61.4 10.7-17.9 1.6-33.2 1.4-46.1-.4-12.9-1.8-23.5-5.3-31.8-10.6-8.3-5.2-14.4-12.3-18.2-21.1-2.8-6.6-4.5-13.2-5.1-19.9-.6-6.7-.2-13.3 1.3-19.7 1.5-6.4 4.1-12.5 7.6-18.3 3.6-5.8 8.2-11.2 14-16 11.3-9.4 24.5-15.3 39.8-17.8 15.2-2.5 32.2-1.7 51 2.3 16.3 3.5 31.2 8.8 44.6 16.1 13.4 7.2 25.5 15.8 36.3 25.7 10.8 9.9 20.1 21 28.1 33.2 8 12.2 14.5 25.1 19.2 38.7.8 2.1 1.4 4.1 2.1 6.2.6 2.1 1.2 4.1 1.7 6.2 1.1 4.1 2 8.2 2.6 12.4.7 4.1 1.1 8.3 1.2 12.4.2 8.3-.7 16.7-2.6 25s-5 16.6-9 24.9c-4 8.3-9.1 16.5-15.1 24.5-6.1 8-13.1 15.7-21 23.2-7.9 7.5-16.7 14.5-26.3 21.1-9.6 6.6-19.9 12.6-31 18.2-11 5.5-22.6 10.3-34.7 14.3-12.1 4-24.8 7.1-38 9.1-8.1 1.3-16.3 2.2-24.8 2.8-8.4.6-16.9.9-25.5.9-17.2 0-33.7-1.5-49.4-4.7-15.7-3.1-30.6-7.8-44.5-14-13.9-6.2-26.7-14-38.5-23.3-11.7-9.3-22.2-20.1-31.2-32.4l-.1-.1z"/>
</svg>
