
<svg xmlns="http://www.w3.org/2000/svg" viewBox="0 0 767.8 768">
  <path fill="#77bc1f" d="M698.3 40c-10.8 25.8-24.5 50.3-41 72.8C585.1 40.6 487.1 0 385 0 173.8 0 0 174 0 385.5 0 491 43.2 592 119.6 664.8l14.2 12.6c69.4 58.5 157.3 90.7 248 90.7 200.8 0 369.6-157.4 383.9-358 10.5-98.2-18.3-222.4-67.4-370.1zm-524 627c-6.2 7.7-15.7 12.2-25.6 12.2-18.1 0-32.9-14.9-32.9-33s14.8-33 32.9-33c7.5 0 14.9 2.6 20.7 7.4 14.1 11.4 16.3 32.3 4.9 46.4zm522.4-115.4c-95 126.7-297.9 84-428 90.1 0 0-23.1 1.4-46.3 5.2 0 0 8.7-3.7 20-8 91.3-31.8 134.5-38 190-66.5 104.5-53.2 207.8-169.6 229.3-290.7C621.9 398.2 501.3 498.3 391.2 539c-75.8 27.8-214.2 79.8-214.2 79.8l-1.8-.9c-93.6-43.4-97-150.3-37.1-188.9 29-18.8 56.9-27.8 75.9-34.4 41.5-14.4 90.6-18 147.4-8.9 62.6 10 135.2 35.7 194.9 80 42.8 31.5 72 69.1 91.5 113 27.9 62.8 23.2 149.7-55.5 236.7z"/>
</svg>
