
<svg xmlns="http://www.w3.org/2000/svg" viewBox="0 0 512 512">
  <path fill="#00618A" d="M256 139.3c-64.3 0-116.4 9.6-116.4 21.5v43c0 11.9 52.1 21.5 116.4 21.5s116.4-9.6 116.4-21.5v-43c0-11.9-52.1-21.5-116.4-21.5zm0 150.5c-77.1 0-116.4-17.9-116.4-21.5v64.5c0 11.9 52.1 21.5 116.4 21.5s116.4-9.6 116.4-21.5V268.3c0 3.6-39.3 21.5-116.4 21.5zm0-32.3c-64.3 0-116.4-9.6-116.4-21.5v43c0 11.9 52.1 21.5 116.4 21.5s116.4-9.6 116.4-21.5v-43c0-11.9-52.1-21.5-116.4-21.5zm0-128c64.3 0 116.4 9.6 116.4 21.5S320.3 172.5 256 172.5s-116.4-9.6-116.4-21.5S191.7 129.5 256 129.5z"/>
</svg>
